<svg width="143" height="44" viewBox="0 0 143 44" fill="none" xmlns="http://www.w3.org/2000/svg">
<path d="M32.3175 11.2723V24.3495C32.3175 24.5614 32.2326 24.7647 32.0814 24.9146C31.9302 25.0645 31.7252 25.1487 31.5114 25.1487H27.3479C27.1341 25.1486 26.9291 25.0644 26.778 24.9145C26.6268 24.7647 26.5419 24.5614 26.5418 24.3495V3.07874C26.5418 2.86676 26.6267 2.66347 26.7779 2.51358C26.9291 2.36369 27.1341 2.27948 27.3479 2.27948H31.2007C31.4145 2.27948 31.6196 2.36369 31.7707 2.51358C31.9219 2.66347 32.0068 2.86676 32.0068 3.07874V6.07422C32.0068 6.07422 33.3841 1.80126 37.4715 1.80126C37.4715 1.80126 41.5145 1.31669 43.1584 5.76586C43.1584 5.76586 44.5357 1.80126 48.7119 1.80126C48.7119 1.80126 54.9227 1.4351 54.9227 7.80702L54.97 11.3163V24.3935C54.97 24.6055 54.885 24.8088 54.7339 24.9587C54.5827 25.1086 54.3776 25.1928 54.1638 25.1928H50C49.7862 25.1927 49.5813 25.1085 49.4301 24.9586C49.279 24.8087 49.194 24.6055 49.1939 24.3935L49.1559 10.1269C49.2742 6.89639 46.6384 7.13145 46.6384 7.13145C43.3212 7.1903 43.6403 11.3163 43.6403 11.3163V24.3935C43.6403 24.6055 43.5554 24.8088 43.4042 24.9587C43.2531 25.1086 43.048 25.1928 42.8342 25.1928H38.6708C38.457 25.1927 38.252 25.1085 38.1008 24.9586C37.9497 24.8087 37.8647 24.6055 37.8646 24.3935V10.4497C37.8646 10.4497 38.1081 7.10185 35.146 7.10185C35.1463 7.10185 32.2141 6.72019 32.3175 11.2723ZM139.641 11.2331V24.31C139.641 24.522 139.556 24.7252 139.404 24.8751C139.253 25.0249 139.048 25.1092 138.835 25.1093L134.504 25.1924C134.291 25.1923 134.086 25.1081 133.934 24.9582C133.783 24.8084 133.698 24.6051 133.698 24.3932V10.4497C133.698 10.4497 133.942 7.10185 130.98 7.10185C130.98 7.10185 128.151 6.9637 128.151 12.2128V24.3491C128.151 24.5611 128.066 24.7643 127.915 24.9142C127.764 25.0641 127.559 25.1483 127.345 25.1484H123.181C122.967 25.1483 122.762 25.0641 122.611 24.9142C122.46 24.7643 122.375 24.5611 122.375 24.3491V3.07874C122.375 2.86679 122.46 2.66355 122.611 2.51368C122.762 2.36381 122.967 2.27957 123.181 2.27948H127.034C127.248 2.27948 127.453 2.36369 127.604 2.51358C127.755 2.66347 127.84 2.86676 127.84 3.07874V6.07422C127.84 6.07422 129.217 1.80126 133.305 1.80126C133.305 1.80126 137.683 1.1426 139.158 5.68305C139.158 5.6827 139.641 6.6194 139.641 11.2331ZM109.579 1.71316C104.254 1.71316 99.9376 6.16232 99.9376 13.651C99.9376 20.2443 103.27 25.5889 109.579 25.5889C115.532 25.5889 119.22 20.2443 119.22 13.651C119.22 6.29448 114.903 1.71316 109.579 1.71316ZM112.939 13.9153C112.939 16.7346 112.584 18.2323 112.584 18.2323C112.078 21.2127 109.896 21.2169 109.574 21.201C109.227 21.2148 107.027 21.1838 106.571 18.2323C106.571 18.2323 106.216 16.7346 106.216 13.9153V13.4456C106.216 10.6263 106.571 9.12855 106.571 9.12855C107.027 6.17713 109.227 6.14611 109.574 6.15951C109.896 6.14365 112.078 6.14752 112.584 9.12855C112.584 9.12855 112.939 10.6263 112.939 13.4456V13.9153ZM97.5211 6.04462V2.99275C97.521 2.7808 97.436 2.57756 97.2849 2.42769C97.1337 2.27782 96.9287 2.19358 96.715 2.19349H82.9528C82.739 2.19349 82.534 2.2777 82.3828 2.42759C82.2316 2.57748 82.1467 2.78078 82.1467 2.99275V6.02101C82.1468 6.23296 82.2317 6.4362 82.3829 6.58607C82.534 6.73594 82.739 6.82018 82.9528 6.82027H90.1314L81.6345 19.0418C81.6345 19.0418 81.2997 19.5373 81.3107 20.0846V23.8022C81.3107 23.8022 81.2553 25.0768 82.7132 24.3371C82.7132 24.3371 85.3029 22.7858 89.6451 22.7858C89.6451 22.7858 93.9334 22.733 96.7924 24.4707C96.7924 24.4707 97.9792 25.0057 97.9792 23.8293V20.5935C97.9792 20.5935 98.0869 19.7371 96.9542 19.2025C96.9542 19.2025 93.6636 17.4109 89.3484 17.7048L97.5211 6.04462ZM23.3284 21.3448L22.025 19.3777C21.6102 18.6433 21.6401 17.8207 21.6401 17.8207V8.74654C21.8178 0.905433 13.0505 1.581 13.0505 1.581C5.25664 1.581 4.10541 7.59487 4.10541 7.59487C3.78054 8.80399 4.72527 8.83324 4.72527 8.83324L8.53368 9.2163C8.53368 9.2163 9.18305 9.36361 9.4194 8.59712C9.4194 8.59712 9.92091 5.97343 12.7256 5.97343C15.7773 5.97343 15.7457 8.57034 15.7457 8.57034V10.7444C9.65363 10.9463 6.83047 12.623 6.83047 12.623C3.06898 14.7375 3.30569 18.9372 3.30569 18.9372C3.30569 25.7795 9.88111 25.4856 9.88111 25.4856C14.0869 25.4856 16.5749 22.4317 16.5749 22.4317C17.3152 23.7243 18.6779 24.957 18.6779 24.957C19.3597 25.69 20.0702 25.0747 20.0702 25.0747L23.1506 22.4613C23.8316 21.9615 23.3284 21.3448 23.3284 21.3448ZM11.9337 21.2602C9.95539 21.2602 9.22001 19.3111 9.54843 17.3954C9.8772 15.4797 11.5847 13.9742 15.746 14.0182V15.1829C15.8935 20.271 13.5804 21.2602 11.9337 21.2602ZM78.6564 21.3448L77.3534 19.3777C76.9386 18.6433 76.9681 17.8207 76.9681 17.8207V8.74654C77.1458 0.905433 68.3785 1.581 68.3785 1.581C60.5847 1.581 59.4334 7.59487 59.4334 7.59487C59.1086 8.80399 60.0533 8.83324 60.0533 8.83324L63.8617 9.2163C63.8617 9.2163 64.5111 9.36361 64.7474 8.59712C64.7474 8.59712 65.2489 5.97343 68.0536 5.97343C71.1053 5.97343 71.0737 8.57034 71.0737 8.57034V10.7444C64.982 10.9463 62.1585 12.623 62.1585 12.623C58.397 14.7375 58.6337 18.9372 58.6337 18.9372C58.6337 25.7795 65.2091 25.4856 65.2091 25.4856C69.4149 25.4856 71.9029 22.4317 71.9029 22.4317C72.6436 23.7243 74.0056 24.957 74.0056 24.957C74.6873 25.69 75.3982 25.0747 75.3982 25.0747L78.4783 22.4613C79.1597 21.9615 78.6564 21.3448 78.6564 21.3448ZM67.2617 21.2602C65.2834 21.2602 64.548 19.3111 64.8764 17.3954C65.2052 15.4797 66.9127 13.9742 71.0737 14.0182V15.1829C71.2215 20.271 68.9088 21.2602 67.2617 21.2602Z" fill="white"/>
<path d="M89.1393 38.5213C89.1393 38.5213 88.791 39.1222 89.2189 39.2565C89.2189 39.2565 89.7023 39.4436 90.3051 38.8889C90.3051 38.8889 94.7014 35.0811 94.8073 28.1485C94.8073 28.1485 94.8397 27.2827 94.4892 27.0458C94.4892 27.0458 93.1119 25.8378 88.1594 26.2053C88.1594 26.2053 83.8424 26.4943 81.4855 28.5689C81.4855 28.5689 81.2737 28.7526 81.2737 28.9887C81.2737 28.9887 81.2229 29.4986 82.5184 29.2776C82.5184 29.2776 86.8351 28.6733 89.4041 28.9887C89.4041 28.9887 90.7288 29.1462 91.0995 29.5931C91.0995 29.5931 91.7087 30.0921 91.3906 31.7459C91.3906 31.7466 90.5163 35.9481 89.1393 38.5213Z" fill="#F3971B"/>
<path d="M88.2693 31.8693C88.2693 31.8693 88.914 32.6975 87.8737 33.4118C87.8737 33.4118 76.7605 42.2256 58.1005 42.2256C58.1005 42.2256 38.8925 43.1651 22.8538 28.7163C22.8538 28.7163 22.2916 28.2268 22.6406 27.7719C22.6406 27.7719 22.9526 27.3532 23.7605 27.8085C23.7605 27.8085 38.8481 37.1301 58.6632 37.1301C58.6632 37.1301 72.436 37.6587 86.5643 31.6677C86.5643 31.6677 87.6899 31.0894 88.2693 31.8693Z" fill="#F3971B"/>
</svg>
