<svg width="112" height="51" viewBox="0 0 112 51" fill="none" xmlns="http://www.w3.org/2000/svg">
<g clip-path="url(#clip0_2584_847)">
<path d="M98.137 22.662C98.137 23.0869 97.8032 23.4208 97.3782 23.4208C96.9533 23.4208 96.6194 23.0869 96.6194 22.662C96.6194 22.237 96.9533 21.9031 97.3782 21.9031C97.8032 21.9031 98.137 22.237 98.137 22.662ZM95.8757 20.3855C95.8757 20.8104 95.5418 21.1443 95.1169 21.1443C94.6919 21.1443 94.3581 20.8104 94.3581 20.3855C94.3581 19.9605 94.6919 19.6266 95.1169 19.6266C95.5418 19.6266 95.8757 19.9757 95.8757 20.3855ZM98.137 20.3855C98.137 20.8104 97.8032 21.1443 97.3782 21.1443C96.9533 21.1443 96.6194 20.8104 96.6194 20.3855C96.6194 19.9605 96.9533 19.6266 97.3782 19.6266C97.8032 19.6266 98.137 19.9757 98.137 20.3855ZM93.5992 20.3855C93.5992 20.8104 93.2653 21.1443 92.8404 21.1443C92.4154 21.1443 92.0816 20.8104 92.0816 20.3855C92.0816 19.9605 92.4154 19.6266 92.8404 19.6266C93.2653 19.6266 93.5992 19.9757 93.5992 20.3855ZM99.4271 17.9572C99.7154 18.2455 99.7154 18.7312 99.4271 19.0347C99.1387 19.3231 98.653 19.3231 98.3647 19.0347C98.0763 18.7464 98.0763 18.2607 98.3647 17.9572C98.653 17.6688 99.1235 17.6688 99.4271 17.9572ZM101.309 16.4547C101.597 16.7431 101.597 17.2287 101.309 17.5322C101.021 17.8206 100.535 17.8206 100.247 17.5322C99.9582 17.2439 99.9582 16.7582 100.247 16.4547C100.535 16.1512 101.021 16.1512 101.309 16.4547ZM90.9585 20.3855C90.9585 20.8104 90.6246 21.1443 90.1996 21.1443C89.7747 21.1443 89.4408 20.8104 89.4408 20.3855C89.4408 19.9605 89.7747 19.6266 90.1996 19.6266C90.6246 19.6266 90.9585 19.9757 90.9585 20.3855ZM88.6972 20.3855C88.6972 20.8104 88.3633 21.1443 87.9383 21.1443C87.5134 21.1443 87.1795 20.8104 87.1795 20.3855C87.1795 19.9605 87.5134 19.6266 87.9383 19.6266C88.3633 19.6266 88.6972 19.9757 88.6972 20.3855ZM97.3782 24.1796C97.788 24.1796 98.137 24.5135 98.137 24.9385C98.137 25.3634 97.8032 25.6973 97.3782 25.6973C96.9533 25.6973 96.6194 25.3634 96.6194 24.9385C96.6194 24.5135 96.9684 24.1796 97.3782 24.1796ZM89.0766 31.7376C89.0766 32.1626 88.7427 32.4964 88.3177 32.4964C87.8928 32.4964 87.5589 32.1626 87.5589 31.7376C87.5589 31.3127 87.8928 30.9788 88.3177 30.9788C88.7427 30.994 89.0766 31.3278 89.0766 31.7376ZM86.8152 29.4763C86.8152 29.9012 86.4814 30.2351 86.0564 30.2351C85.6315 30.2351 85.2976 29.9012 85.2976 29.4763C85.2976 29.0513 85.6315 28.7175 86.0564 28.7175C86.4814 28.7175 86.8152 29.0513 86.8152 29.4763ZM89.0766 29.4763C89.0766 29.9012 88.7427 30.2351 88.3177 30.2351C87.8928 30.2351 87.5589 29.9012 87.5589 29.4763C87.5589 29.0513 87.8928 28.7175 88.3177 28.7175C88.7427 28.7175 89.0766 29.0513 89.0766 29.4763ZM84.5539 29.4763C84.5539 29.9012 84.22 30.2351 83.7951 30.2351C83.3701 30.2351 83.0363 29.9012 83.0363 29.4763C83.0363 29.0513 83.3701 28.7175 83.7951 28.7175C84.22 28.7175 84.5539 29.0513 84.5539 29.4763ZM88.3177 33.2553C88.7275 33.2553 89.0766 33.5892 89.0766 34.0141C89.0766 34.4391 88.7427 34.7729 88.3177 34.7729C87.8928 34.7729 87.5589 34.4391 87.5589 34.0141C87.5741 33.6043 87.908 33.2553 88.3177 33.2553ZM97.3782 26.441C97.788 26.441 98.137 26.7748 98.137 27.1998C98.137 27.6247 97.8032 27.9586 97.3782 27.9586C96.9533 27.9586 96.6194 27.6247 96.6194 27.1998C96.6194 26.7748 96.9684 26.441 97.3782 26.441ZM97.3782 29.0969C97.788 29.0969 98.137 29.4308 98.137 29.8557C98.137 30.2807 97.8032 30.6145 97.3782 30.6145C96.9533 30.6145 96.6194 30.2807 96.6194 29.8557C96.6194 29.4308 96.9684 29.0969 97.3782 29.0969ZM92.4761 26.0615C92.4761 26.4865 92.1423 26.8204 91.7173 26.8204C91.2924 26.8204 90.9585 26.4865 90.9585 26.0615C90.9585 25.6366 91.2924 25.3027 91.7173 25.3027C92.1423 25.3179 92.4761 25.6518 92.4761 26.0615ZM93.7662 23.6333C94.0545 23.9216 94.0545 24.4073 93.7662 24.7108C93.4778 24.9992 92.9921 24.9992 92.7038 24.7108C92.4154 24.4225 92.4154 23.9368 92.7038 23.6333C92.9921 23.3449 93.4626 23.3449 93.7662 23.6333ZM95.6481 22.1308C95.9364 22.4191 95.9364 22.9048 95.6481 23.2083C95.3597 23.4967 94.8741 23.4967 94.5857 23.2083C94.2973 22.92 94.2973 22.4343 94.5857 22.1308C94.8741 21.8272 95.3597 21.8272 95.6481 22.1308ZM90.746 27.048C91.0344 27.3364 91.0344 27.822 90.746 28.1256C90.4576 28.4139 89.972 28.4139 89.6836 28.1256C89.3953 27.8372 89.3953 27.3516 89.6836 27.048C89.972 26.7445 90.4425 26.7445 90.746 27.048ZM60.8935 32.5268C59.133 34.0141 57.069 34.7729 54.7014 34.7729C52.1517 34.7729 49.9511 33.8775 48.0995 32.1019C46.2632 30.2958 45.3374 28.1104 45.3374 25.5304C45.3374 22.9503 46.2632 20.7649 48.0995 18.9589C49.9511 17.1377 52.1517 16.2271 54.7014 16.2271C56.2039 16.2271 57.5243 16.4699 58.6777 16.9707C59.8159 17.4564 60.9694 18.2759 62.1228 19.4293L62.2139 19.5204L60.4382 21.4478L60.3319 21.3568C59.1937 20.4158 58.3286 19.7784 57.7064 19.4445C56.7958 18.9589 55.7941 18.7312 54.7014 18.7312C52.8043 18.7312 51.2411 19.399 49.9814 20.7193C48.7218 22.0397 48.0844 23.6484 48.0844 25.5152C48.0844 27.3819 48.7218 28.9603 49.9814 30.2958C51.2411 31.6162 52.8195 32.284 54.7014 32.284C56.4467 32.284 57.934 31.7831 59.133 30.7663C60.3927 29.7191 61.0301 28.3836 61.0604 26.7445H54.8835V24.2555H63.8378V25.8946C63.8529 28.6567 62.8665 30.8574 60.8935 32.5268ZM76.2978 32.9062C75.0381 34.1204 73.5205 34.7274 71.76 34.7274C69.9995 34.7274 68.497 34.1204 67.2373 32.9062C65.9777 31.6921 65.3402 30.1441 65.3402 28.2925C65.3402 26.441 65.9625 24.9081 67.207 23.7092C68.4666 22.4798 69.9843 21.8728 71.7448 21.8728C73.5053 21.8728 75.0078 22.4798 76.2675 23.7092C77.5575 24.9233 78.1949 26.4561 78.1949 28.2925C78.1949 30.1289 77.5726 31.6921 76.2978 32.9062ZM74.507 25.3634C73.7937 24.6198 72.8831 24.2403 71.76 24.2403C70.6369 24.2403 69.7111 24.6198 68.9827 25.3634C68.2845 26.0919 67.9355 27.0632 67.9355 28.2925C67.9355 29.5218 68.2997 30.4628 69.013 31.2216C69.7263 31.9653 70.6369 32.3447 71.76 32.3447C72.8831 32.3447 73.7937 31.9653 74.507 31.2216C75.2203 30.478 75.5845 29.5066 75.5845 28.2925C75.5845 27.0936 75.2203 26.1222 74.507 25.3634ZM43.4555 20.5676C43.1975 20.8559 42.8332 20.9925 42.3628 20.9925C41.9226 20.9925 41.5584 20.8559 41.27 20.5676C41.012 20.264 40.8754 19.915 40.8754 19.5052C40.8754 19.0954 41.012 18.7464 41.27 18.4732C41.5432 18.1848 41.9075 18.0483 42.3628 18.0483C42.8181 18.0483 43.1671 18.2 43.4251 18.5036C43.6983 18.7767 43.8501 19.1258 43.8501 19.5052C43.8501 19.9302 43.7287 20.2944 43.4555 20.5676ZM41.1031 34.4694V22.1156H43.6224V34.4694H41.1031ZM37.6125 32.8455C36.4439 34.09 34.9414 34.7122 33.1202 34.7122C31.1927 34.7122 29.6144 34.0445 28.4154 32.7089C27.2923 31.4493 26.7308 29.8709 26.7308 27.9738C26.7308 26.2588 27.3075 24.817 28.4761 23.6333C29.6599 22.4343 31.0561 21.8424 32.6952 21.8424C33.9852 21.8424 35.1538 22.1308 36.201 22.6923L36.2769 22.7378V25.4241L36.0644 25.2723C35.6547 24.9992 35.1538 24.7563 34.5923 24.5439C34.0459 24.3314 33.5451 24.2252 33.0898 24.2252C31.9212 24.2252 30.9954 24.5894 30.2973 25.3179C29.5992 26.0464 29.2501 27.0177 29.2501 28.247C29.2501 29.4763 29.6144 30.4324 30.3277 31.1913C31.0561 31.9349 31.9971 32.3143 33.1505 32.3143C34.2281 32.3143 35.1083 31.9046 35.8216 31.1002C36.5349 30.2958 36.8992 29.0969 36.8992 27.5185V16.5154H39.3881V27.9131C39.3881 29.9468 38.7962 31.5858 37.6125 32.8455ZM22.709 34.4694V27.2757C22.709 26.3954 22.4358 25.6821 21.8894 25.1206C21.3582 24.5439 20.7056 24.2555 19.9013 24.2555C19.1424 24.2555 18.4898 24.5439 17.9131 25.1206C17.3668 25.6821 17.0936 26.3954 17.0936 27.2757V34.4694H14.6046V27.2757C14.6046 25.6821 15.1054 24.3769 16.0919 23.3753C17.0936 22.3584 18.3684 21.8576 19.9013 21.8576C21.4341 21.8576 22.6938 22.3584 23.7106 23.3753C24.7275 24.3921 25.2283 25.6973 25.2283 27.2757V34.4694H22.709ZM10.4766 34.4694V16.5306H13.1173V34.4694H10.4766Z" fill="white"/>
</g>
<defs>
<clipPath id="clip0_2584_847">
<rect width="91.0494" height="18.5459" fill="white" transform="translate(10.4766 16.2271)"/>
</clipPath>
</defs>
</svg>
