<svg width="138" height="51" viewBox="0 0 138 51" fill="none" xmlns="http://www.w3.org/2000/svg">
<g clip-path="url(#clip0_2584_873)">
<path d="M76.6184 21.9092C74.9874 21.9092 73.6922 22.5315 72.9966 23.7522L72.8521 22.2682H70.5254V33.6377H73.284V27.2947C73.284 25.6671 74.0281 24.3985 75.9228 24.3985C77.6984 24.3985 78.3456 25.6671 78.3456 27.2947V33.6377H81.1042V26.4569C81.1042 23.9198 79.5931 21.9092 76.6184 21.9092Z" fill="white"/>
<path d="M60.211 26.816C60.5949 25.4517 61.6982 24.3985 63.4734 24.3985C65.2006 24.3985 66.2321 25.4996 66.472 26.816H60.211ZM63.4734 21.9092C59.8511 21.9092 57.4043 24.59 57.4043 27.9411C57.4043 31.1245 59.6592 33.9968 63.5214 33.9968C66.1361 33.9968 68.1272 32.7043 69.0149 30.6219L66.496 29.8081C66.0163 30.9091 64.9368 31.5075 63.5454 31.5075C61.5783 31.5075 60.4508 30.2868 60.163 28.8027H69.1827C69.5186 24.7336 67.1677 21.9092 63.4734 21.9092Z" fill="white"/>
<path d="M54.8255 17.1348H53.3978L53.3965 33.6383H56.1551L56.1565 18.4628C56.1565 17.666 55.5514 17.1348 54.8255 17.1348Z" fill="white"/>
<path d="M104.3 22.2682H100.966L96.4325 26.9357L96.434 18.467C96.434 17.7673 95.826 17.1841 95.1712 17.1841H93.6754L93.6738 33.6378H96.4325V30.3107L98.0151 28.683L101.254 33.6378H104.445L99.8868 26.7682L104.3 22.2682Z" fill="white"/>
<path d="M119.844 23.9921L119.676 22.2688H117.35V33.6384H120.108V28.133C120.108 25.8592 120.948 24.8778 122.891 24.8778H123.37V22.0532C121.619 22.0532 120.396 22.7475 119.844 23.9921Z" fill="white"/>
<path d="M130.328 24.7099V22.2683H127.21V18.6689H124.451V29.0662C124.451 32.0342 125.579 33.6379 128.841 33.6379H130.328V31.1247H128.889C127.834 31.1247 127.21 30.5502 127.21 29.4252V24.7099H130.328Z" fill="white"/>
<path d="M109.769 31.5075C107.754 31.5075 106.363 30.0714 106.363 27.9411C106.363 25.8107 107.754 24.3986 109.769 24.3986C111.664 24.3986 113.08 25.8107 113.08 27.9411C113.08 30.0714 111.664 31.5075 109.769 31.5075ZM113.2 23.8241C112.384 22.5315 111.064 21.9092 109.361 21.9092C105.979 21.9092 103.58 24.3268 103.58 27.9411C103.58 31.5315 105.954 33.9968 109.361 33.9968C110.897 33.9968 112.096 33.4942 112.911 32.4889V33.6379H115.67V22.2683H113.343L113.2 23.8241Z" fill="white"/>
<path d="M89.1402 26.9118L87.0049 26.5767C85.7335 26.3613 85.2301 26.0741 85.2301 25.4518C85.2301 24.8533 85.8058 24.2788 87.101 24.2788C88.7804 24.2788 89.6682 25.0927 90.1479 26.0022L92.1148 24.4943C91.3231 23.106 89.8834 21.9092 87.4369 21.9092C84.4622 21.9092 82.6152 23.4173 82.6152 25.5475C82.6152 27.3187 83.6705 28.5395 85.9734 28.8745L88.061 29.1858C89.596 29.4251 89.812 29.9038 89.812 30.4304C89.812 31.1007 89.0679 31.6273 87.8927 31.6273C86.3577 31.6273 85.0618 30.957 84.1986 29.4969L82.0156 31.0288C83.2393 33.0873 85.2777 33.9968 87.7005 33.9968C90.8196 33.9968 92.4745 32.2735 92.4745 30.1432C92.4745 28.4916 91.5868 27.2947 89.1402 26.9118Z" fill="white"/>
<path d="M18.2129 31.8585C21.6818 31.7864 24.4463 29.4066 24.5727 25.7109C24.916 27.2433 25.5846 28.5954 26.3253 29.7492C24.2475 31.3538 22.2781 32.0748 20.2184 32.0748C19.5138 32.0748 18.8634 32.0027 18.2129 31.8585Z" fill="white"/>
<path d="M47.5568 25.4039C47.5568 25.7465 47.34 25.9808 46.9967 25.9808H46.2018L46.2378 25.476C46.3825 23.4569 45.9487 22.0868 45.0996 20.8789L47.0328 21.4378C47.4484 21.5821 47.5568 21.7803 47.5568 22.3212V25.4039Z" fill="white"/>
<path d="M7.68164 22.3212C7.68164 21.7803 7.79002 21.5639 8.18748 21.4378L10.2111 20.8789C9.28972 22.177 8.83791 23.9257 8.91016 25.458L8.94636 25.9808H8.22369C7.89847 25.9808 7.68164 25.7465 7.68164 25.4039V22.3212Z" fill="white"/>
<path d="M14.6738 20.6809C15.7217 19.3648 17.2033 18.7158 19.1365 18.7158C22.6416 18.7158 25.4421 20.8431 26.7972 24.3946L27.5199 26.2334C29.2725 30.8305 31.5489 33.1201 34.2049 33.9674C30.0674 33.3545 26.8152 30.8847 25.4421 26.8284L24.8278 24.9715C23.5088 21.1676 21.4492 19.4369 18.197 19.4369C16.878 19.4369 15.5772 19.9237 14.6738 20.6809Z" fill="white"/>
<path d="M38.7383 17.436C42.8577 17.9769 45.8027 21.1138 45.8027 24.8455C45.8027 28.1086 43.3455 30.7587 40.003 31.0292C42.2434 29.659 43.0926 27.8201 43.0926 25.3143C43.0926 21.7267 41.4305 18.5539 38.7383 17.436Z" fill="white"/>
<path d="M31.7824 17.2373C30.1743 17.8863 28.8373 18.8238 27.6629 20.1218C26.0729 18.5173 25.0431 17.9043 23.2363 17.2554L31.7824 17.2373Z" fill="white"/>
<path d="M27.9531 20.5009C30.1393 18.2293 32.8495 17.0034 35.2344 17.0034C38.1975 17.0034 41.1425 18.9324 42.1723 22.4118C40.8173 20.1223 38.5047 19.4372 36.8424 19.4372C33.536 19.4372 30.6452 22.1954 30.6452 25.6569C29.9225 23.0428 28.7843 21.3302 27.9531 20.5009Z" fill="white"/>
<path d="M9.41406 25.4585C9.41406 20.4648 13.2625 17.0034 18.8453 17.0034C23.9765 17.0034 28.0237 19.7977 29.7583 24.5391L30.2641 26.0174C31.7095 29.9835 34.0763 31.8765 37.5634 31.8765C40.1651 31.8765 43.1824 30.9931 44.7363 29.2083C43.4173 32.1829 40.5265 33.8956 37.0033 33.8956C32.9562 33.8956 29.9931 31.2274 28.2406 26.6123L27.4456 24.5391C25.8556 20.4287 22.9829 18.1752 19.2428 18.1752C15.015 18.1752 12.1242 21.1678 12.1242 25.3864C12.1242 29.695 15.3042 32.5975 20.074 32.5975C21.6278 32.5975 22.9829 32.291 24.3379 31.6421C22.8203 33.1023 20.6701 33.8956 18.2853 33.8956C13.1721 33.8956 9.41406 30.3261 9.41406 25.4585Z" fill="white"/>
</g>
<defs>
<clipPath id="clip0_2584_873">
<rect width="122.645" height="16.9947" fill="white" transform="translate(7.67773 17.0024)"/>
</clipPath>
</defs>
</svg>
