<svg width="138" height="51" viewBox="0 0 138 51" fill="none" xmlns="http://www.w3.org/2000/svg">
<path fill-rule="evenodd" clip-rule="evenodd" d="M31.4361 19.7722C27.1047 19.7722 24.3799 22.787 24.3799 27.0016C24.3799 31.0647 27.3896 33.7981 31.4361 33.7981C35.0166 33.7981 37.8164 31.7553 38.2055 28.2035H33.9274C33.7186 29.6097 32.94 30.4769 31.4099 30.4769C29.5417 30.4769 28.7903 28.7153 28.7903 27.0016C28.7903 25.1641 29.1793 23.093 31.6435 23.093C32.7578 23.093 33.7699 23.8882 33.7976 25.0111H38.0746C37.7656 21.5101 34.783 19.7722 31.4361 19.7722ZM78.6958 19.7717C76.7868 19.7717 75.4445 20.6359 74.6417 22.0265H74.5874V20.1557H70.3098V33.4156H74.7182V26.5305C74.7182 24.5948 75.5653 23.3462 77.1039 23.3467C79.3918 23.3467 79.3098 25.1877 79.3098 27.0006V33.4156H83.7197V24.9064C83.7197 22.9898 83.1837 19.7717 78.6958 19.7717ZM91.5671 19.7717C90.0356 19.7717 88.4799 20.0284 87.2861 20.6938C86.0932 21.3813 85.2628 22.5067 85.1858 24.2435H89.3103C89.5182 23.1197 90.2958 22.5847 91.5148 22.5847C92.4237 22.5847 93.6412 22.9641 93.6412 23.9607C93.6412 24.7811 93.226 25.0342 92.4746 25.1887C89.414 25.8002 84.6412 25.4696 84.6412 29.7853C84.6412 32.5208 86.6645 33.7971 89.2303 33.7971C90.8409 33.7971 92.5279 33.3376 93.6679 32.1634C93.7207 32.5978 93.7711 33.0049 93.9266 33.4156H98.3637C97.8448 32.3683 97.8453 31.1407 97.8453 30.0159V24.2159C97.8453 20.4628 94.7555 19.7717 91.5666 19.7717H91.5671ZM93.5904 27.2064C93.6941 29.9414 92.992 31.1146 90.8922 31.1146C89.9062 31.1146 89.0511 30.6792 89.0511 29.6092C89.0511 28.5598 89.8821 28.1506 90.867 27.9216C91.8283 27.6665 92.9683 27.5915 93.5899 27.207L93.5904 27.2064ZM99.2847 17.2004V33.4166H103.694V17.1999L99.2847 17.2004ZM114.189 17.2004V21.5876H114.135C113.228 20.3868 111.957 19.7732 110.297 19.7732C106.483 19.7732 104.617 23.0432 104.617 26.4918C104.617 30.2217 106.407 33.7981 110.634 33.7981C112.19 33.7981 113.488 33.1343 114.344 31.8821H114.394V33.4161H118.598V17.2004H114.189ZM111.723 23.094C113.643 23.094 114.344 24.8581 114.344 26.7731C114.344 28.4581 113.877 30.4769 111.723 30.4769C109.7 30.4769 109.027 28.4587 109.027 26.6453C109.027 24.9602 109.7 23.094 111.723 23.094ZM119.518 17.2004V21.5866H121.582L123.642 17.2004H119.518ZM39.1275 17.2004V33.4166H46.2069C51.2097 33.4166 54.2763 30.5544 54.2763 25.2421C54.2763 20.2207 51.255 17.2004 46.2069 17.2004H39.1275ZM43.8263 20.96H45.8073C48.3696 20.96 49.5181 22.6471 49.5181 25.2295C49.5181 28.0701 48.592 29.6585 45.8073 29.6585H43.8263V20.96ZM5.81926 17.1777L2.41797 33.4161H7.27429L8.52599 26.9674C8.6599 26.2548 8.77386 25.5387 8.86773 24.8198H8.91655C8.99305 25.2688 9.19085 26.1576 9.38965 26.916L11.1542 33.4161H15.9808L17.7424 26.916C17.9432 26.1576 18.14 25.2688 18.2155 24.8198H18.2673C18.3101 25.1646 18.4455 26.1369 18.6081 26.9674L19.8598 33.4161H24.7151L21.3143 17.1777H16.1676L14.1056 25.3337C13.9329 25.9658 13.72 26.9895 13.5912 27.5235H13.5429C13.412 26.9895 13.2006 25.9658 13.0285 25.3337L10.9655 17.1777L5.81926 17.1777ZM62.2802 19.7722C57.9337 19.7722 55.1958 22.8137 55.1958 26.7973C55.1958 30.7819 57.9327 33.8223 62.2792 33.8223C66.6262 33.8223 69.3616 30.7824 69.3616 26.7973C69.3616 22.8137 66.6267 19.7722 62.2802 19.7722ZM62.2792 23.093C64.1852 23.093 64.9502 24.6749 64.9502 26.7973C64.9502 28.9217 64.1857 30.5015 62.2797 30.5015C60.3722 30.5015 59.6072 28.9217 59.6072 26.7973C59.6072 24.6744 60.3717 23.093 62.2792 23.093ZM128.887 19.7707C126.277 19.7707 122.706 20.6389 122.706 23.8333C122.706 27.4103 126.251 27.4853 128.991 28.1758C129.757 28.356 131.116 28.5588 131.115 29.5815C131.115 30.6304 129.911 30.9877 129.066 30.9877C128.452 30.9877 127.921 30.8342 127.513 30.5272C127.077 30.194 126.796 29.7073 126.796 29.045H122.589C122.718 32.7513 125.944 33.7971 129.093 33.7971C132.089 33.7971 135.582 32.6214 135.582 29.0712C135.582 27.9725 134.893 26.0302 132.204 25.4922C130.206 25.0604 127.174 24.8309 127.174 23.5787C127.174 22.6576 128.326 22.5811 129.042 22.5811C129.58 22.5811 130.008 22.6838 130.367 22.9133C130.725 23.1438 130.931 23.5007 130.931 24.0628H135.007C134.854 20.6143 131.806 19.7707 128.887 19.7707Z" fill="white"/>
</svg>
