<svg width="158" height="37" viewBox="0 0 158 37" fill="none" xmlns="http://www.w3.org/2000/svg">
<g clip-path="url(#clip0_1183_5901)">
<path d="M55.8118 20.7701L54.8747 23.6166H54.7966C54.6405 22.9748 54.3541 21.998 53.8856 20.8259L48.8619 7.29104H43.9424V28.8631H47.1961V15.5515C47.1961 14.7143 47.1961 13.7655 47.17 12.5934C47.144 12.0073 47.0919 11.5608 47.0659 11.2259H47.144C47.3002 12.0631 47.4824 12.6771 47.6125 13.0678L53.6513 28.8073H55.9419L61.9287 12.9283C62.0588 12.5655 62.189 11.8399 62.3191 11.2259H62.3972C62.3191 12.8166 62.2671 14.2399 62.241 15.105V28.7794H65.703V7.23523H60.9656L55.8118 20.7701ZM68.9827 13.3189H72.3665V28.7794H68.9827V13.3189ZM70.7006 6.78872C70.128 6.78872 69.6594 7.01197 69.269 7.40267C68.8785 7.79337 68.6703 8.29569 68.6703 8.90965C68.6703 9.49569 68.8785 9.99802 69.269 10.3887C69.6594 10.7794 70.128 10.9748 70.7006 10.9748C71.2732 10.9748 71.7678 10.7515 72.1322 10.3887C72.5227 9.99802 72.7309 9.49569 72.7309 8.90965C72.7309 8.3236 72.5227 7.82128 72.1322 7.40267C71.7938 7.01197 71.2993 6.78872 70.7006 6.78872ZM84.366 13.1794C83.7413 13.0399 83.0906 12.9562 82.4659 12.9562C80.9302 12.9562 79.5246 13.319 78.3532 14.0445C77.1819 14.7701 76.2449 15.7748 75.6462 17.0306C75.0215 18.3143 74.7091 19.7934 74.7091 21.4957C74.7091 22.9748 75.0215 24.2864 75.6202 25.4864C76.2188 26.6585 77.0518 27.6073 78.171 28.2492C79.2382 28.891 80.4877 29.2259 81.8932 29.2259C83.5071 29.2259 84.8866 28.8631 85.9799 28.1934L86.0059 28.1655V24.8166L85.8757 24.9283C85.3812 25.319 84.8085 25.6538 84.2359 25.8492C83.6372 26.0724 83.0906 26.1841 82.6221 26.1841C81.2685 26.1841 80.2013 25.7655 79.4465 24.8445C78.6656 23.9515 78.2752 22.7236 78.2752 21.1887C78.2752 19.598 78.6656 18.3422 79.4725 17.4213C80.2794 16.5003 81.3466 16.0259 82.6481 16.0259C83.7413 16.0259 84.8606 16.4166 85.8757 17.198L86.0059 17.3096V13.7655L85.9799 13.7376C85.5374 13.5422 85.0428 13.3189 84.366 13.1794ZM95.5326 13.0678C94.6997 13.0678 93.9188 13.3469 93.2421 13.9329C92.6694 14.4352 92.279 15.1608 91.9406 16.0259H91.9146V13.3189H88.5307V28.7794H91.9146V20.8817C91.9146 19.5422 92.1749 18.4259 92.7475 17.6166C93.3202 16.7794 94.049 16.3608 94.934 16.3608C95.2463 16.3608 95.5587 16.4445 95.9491 16.5003C96.3135 16.612 96.5738 16.7236 96.756 16.8631L96.8862 16.9748V13.3469L96.8081 13.3189C96.5738 13.1515 96.1053 13.0678 95.5326 13.0678ZM104.747 12.9841C102.378 12.9841 100.478 13.7376 99.1507 15.2166C97.7972 16.6957 97.1465 18.7329 97.1465 21.3003C97.1465 23.7003 97.8232 25.6538 99.1247 27.0771C100.426 28.4724 102.196 29.198 104.409 29.198C106.725 29.198 108.573 28.4445 109.901 26.9376C111.254 25.4306 111.905 23.4213 111.905 20.9376C111.905 18.4817 111.28 16.5283 110.005 15.105C108.782 13.6817 106.986 12.9841 104.747 12.9841ZM107.454 24.8724C106.829 25.7376 105.84 26.1562 104.617 26.1562C103.394 26.1562 102.404 25.7376 101.702 24.8166C100.999 23.9515 100.66 22.6957 100.66 21.105C100.66 19.4585 101.025 18.2027 101.702 17.3096C102.404 16.4166 103.368 15.9701 104.591 15.9701C105.788 15.9701 106.725 16.3887 107.402 17.2538C108.079 18.1189 108.443 19.3748 108.443 21.0213C108.391 22.6957 108.105 24.0073 107.454 24.8724ZM119.454 19.7376C118.386 19.2631 117.71 18.9003 117.397 18.5934C117.137 18.3143 117.007 17.9236 117.007 17.4213C117.007 17.0027 117.163 16.5841 117.554 16.305C117.944 16.0259 118.386 15.8864 119.037 15.8864C119.61 15.8864 120.209 15.998 120.781 16.1655C121.354 16.3329 121.874 16.5841 122.291 16.919L122.421 17.0306V13.6259L122.343 13.598C121.952 13.4306 121.432 13.2631 120.807 13.1236C120.182 13.012 119.61 12.9562 119.141 12.9562C117.527 12.9562 116.2 13.3748 115.159 14.2957C114.118 15.1608 113.623 16.3329 113.623 17.7003C113.623 18.4259 113.727 19.0678 113.961 19.598C114.196 20.1283 114.534 20.6306 115.003 21.0492C115.471 21.4399 116.148 21.8864 117.085 22.305C117.866 22.6678 118.465 22.9469 118.829 23.1701C119.193 23.3934 119.428 23.6445 119.61 23.8399C119.74 24.0631 119.818 24.3422 119.818 24.705C119.818 25.7376 119.089 26.2399 117.606 26.2399C117.033 26.2399 116.434 26.1283 115.731 25.8771C115.029 25.6259 114.378 25.2631 113.831 24.8445L113.701 24.7329V28.2771L113.779 28.305C114.274 28.5562 114.872 28.7236 115.601 28.919C116.33 29.0585 116.981 29.1701 117.554 29.1701C119.297 29.1701 120.729 28.7515 121.744 27.8306C122.785 26.9376 123.332 25.7934 123.332 24.3143C123.332 23.2817 123.072 22.3608 122.499 21.6631C121.744 20.9934 120.807 20.2957 119.454 19.7376ZM132.26 12.9841C129.891 12.9841 127.991 13.7376 126.664 15.2166C125.336 16.6957 124.66 18.7329 124.66 21.3003C124.66 23.7003 125.336 25.6538 126.638 27.0771C127.939 28.4724 129.709 29.198 131.922 29.198C134.238 29.198 136.086 28.4445 137.414 26.9376C138.767 25.4306 139.418 23.4213 139.418 20.9376C139.418 18.4817 138.794 16.5283 137.518 15.105C136.295 13.6817 134.499 12.9841 132.26 12.9841ZM134.941 24.8724C134.316 25.7376 133.327 26.1562 132.104 26.1562C130.855 26.1562 129.891 25.7376 129.189 24.8166C128.486 23.9515 128.147 22.6957 128.147 21.105C128.147 19.4585 128.512 18.2027 129.189 17.3096C129.891 16.4166 130.855 15.9701 132.078 15.9701C133.249 15.9701 134.212 16.3887 134.889 17.2538C135.566 18.1189 135.93 19.3748 135.93 21.0213C135.93 22.6957 135.592 24.0073 134.941 24.8724ZM157.509 16.305V13.3189H154.099V8.74221L153.995 8.77011L150.767 9.80267L150.689 9.83058V13.3189H145.587V11.3655C145.587 10.4724 145.795 9.77476 146.16 9.32825C146.524 8.88174 147.071 8.65848 147.748 8.65848C148.216 8.65848 148.711 8.77011 149.257 9.02128L149.387 9.105V5.95151L149.309 5.9236C148.841 5.75616 148.216 5.64453 147.409 5.64453C146.394 5.64453 145.509 5.89569 144.702 6.3143C143.895 6.78872 143.297 7.43058 142.854 8.29569C142.412 9.1329 142.177 10.0817 142.177 11.1701V13.3189H139.809V16.2771H142.177V28.7794H145.587V16.305H150.689V24.2585C150.689 27.5236 152.121 29.1701 154.984 29.1701C155.452 29.1701 155.947 29.0864 156.415 29.0027C156.91 28.891 157.274 28.7515 157.483 28.6399L157.509 28.612V25.6259L157.379 25.7376C157.17 25.8771 156.988 25.9887 156.676 26.0724C156.415 26.1562 156.181 26.1841 155.999 26.1841C155.322 26.1841 154.854 26.0166 154.515 25.598C154.203 25.2073 154.047 24.5655 154.047 23.6166V16.305H157.509Z" fill="white"/>
<path d="M0.317383 0.0351562H16.2734V17.1421H0.317383V0.0351562Z" fill="#F25022"/>
<path d="M17.9385 0.0351562H33.8945V17.1421H17.9385V0.0351562Z" fill="#7FBA00"/>
<path d="M0.317383 18.9282H16.2734V36.0352H0.317383V18.9282Z" fill="#00A4EF"/>
<path d="M17.9385 18.9282H33.8945V36.0352H17.9385V18.9282Z" fill="#FFB900"/>
</g>
<defs>
<clipPath id="clip0_1183_5901">
<rect width="157.2" height="36" fill="white" transform="translate(0.3125 0.0351562)"/>
</clipPath>
</defs>
</svg>
