<svg width="100" height="24" viewBox="0 0 100 24" fill="none" xmlns="http://www.w3.org/2000/svg">
<path d="M34.2913 13.8092C34.2913 11.5942 33.2806 9.83085 31.2377 9.83085C29.1947 9.83085 28.1195 11.5942 28.1195 13.8092C28.1195 16.0242 29.1302 17.7876 31.2377 17.7876C33.3236 17.7231 34.2913 16.0242 34.2913 13.8092ZM25.84 13.8092C25.84 10.4545 27.9475 7.95995 31.2162 7.95995C34.4849 7.95995 36.5923 10.4545 36.5923 13.8092C36.5923 17.1639 34.4849 19.594 31.2162 19.594C27.9475 19.594 25.84 17.1639 25.84 13.8092ZM38.5492 8.1965H40.8717L44.6135 14.4328C44.9576 15.0565 45.4092 16.0242 45.4092 16.0242H45.4737C45.4737 16.0242 45.4092 14.8844 45.4092 14.0888V8.1965H47.6027V19.3574H45.3877L41.5384 13.1856C41.1943 12.6265 40.7427 11.6587 40.7427 11.6587H40.6782C40.6782 11.6587 40.7427 12.8415 40.7427 13.5942V19.3789H38.5277V8.1965H38.5492ZM50.1187 8.1965H58.3335V10.0674H52.3767V12.5619H57.6023V14.4328H52.3767V17.4435H58.3765V19.3789H50.0972V8.1965H50.1187ZM62.914 13.4651H65.2365C66.4192 13.4651 67.0429 12.777 67.0429 11.8308C67.0429 10.8201 66.3547 10.1964 65.2795 10.1964H62.8925V13.4651H62.914ZM60.5915 8.1965H65.516C66.8278 8.1965 67.774 8.58358 68.4622 9.20722C69.0858 9.83085 69.4729 10.734 69.4729 11.7663C69.4729 13.8737 68.0536 15.2715 65.7311 15.2715H63V19.2929H60.7205V8.175H60.5915V8.1965ZM71.0857 8.1965H73.3437V17.4435H78.5693V19.3789H71.0857V8.1965ZM79.8166 15.7446V8.1965H82.0746V15.7876C82.0746 16.9274 82.6337 17.7661 84.182 17.7661C85.6013 17.7661 86.2895 16.9059 86.2895 15.7876V8.1965H88.5475V15.7876C88.5475 18.1746 87.0637 19.594 84.2466 19.594C81.3004 19.5294 79.8166 18.1746 79.8166 15.7446ZM90.1388 15.9167H92.3538C92.5258 17.2715 93.257 17.7876 94.8484 17.7876C95.9881 17.7876 96.9988 17.4005 96.9988 16.3683C96.9988 15.293 95.9236 15.0565 94.2247 14.6694C92.2463 14.2178 90.3754 13.7017 90.3754 11.3792C90.3754 9.16421 92.1818 8.02446 94.6333 8.02446C97.1278 8.02446 98.7622 9.27173 98.9342 11.4867H96.7838C96.6762 10.347 95.773 9.78784 94.6333 9.78784C93.4505 9.78784 92.5904 10.304 92.5904 11.0996C92.5904 12.0028 93.386 12.2824 95.0204 12.6265C97.3429 13.1426 99.2138 13.6372 99.2138 16.0887C99.2138 18.3467 97.4074 19.594 94.8484 19.594C91.9022 19.594 90.2033 18.2392 90.1388 15.9167ZM0.787109 4.21815V23.2712H19.8402V12.3899H17.7328V21.1853H2.87306V6.39011H11.6684V4.23965H0.787109V4.21815ZM17.7328 0.712891V4.21815H14.163V6.36861H17.7328V9.87386H19.8402V6.36861H23.3455V4.21815H19.8402V0.712891H17.7328Z" fill="white"/>
<path d="M11.668 18.3466V9.05664H9.79707C9.79707 9.68027 9.56052 10.1964 9.23795 10.4759C8.89387 10.7555 8.37776 10.863 7.75413 10.863H7.51758V12.3899H9.496V18.3466C9.51751 18.3466 11.668 18.3466 11.668 18.3466Z" fill="white"/>
</svg>
