<svg width="138" height="51" viewBox="0 0 138 51" fill="none" xmlns="http://www.w3.org/2000/svg">
<g clip-path="url(#clip0_2612_758)">
<path fill-rule="evenodd" clip-rule="evenodd" d="M13 14.0666C13 11.5445 15.0499 9.5 17.5666 9.5H40.4256C42.948 9.5 44.9925 11.5498 44.9925 14.0666V36.9256C44.9925 39.4477 42.9426 41.4922 40.4259 41.4922H17.5666C15.0446 41.4925 13 39.4424 13 36.9256V14.0666ZM22.9184 30.8282C26.282 30.8282 27.8538 28.9907 27.8538 26.3836V20.1643H25.1188V26.3052C25.1188 27.5458 24.3643 28.4412 22.9181 28.4412C21.4562 28.4412 20.7017 27.5461 20.7017 26.3052V20.1643H17.951V26.3993C17.9513 28.975 19.5547 30.8282 22.9184 30.8282ZM35.6218 30.8282C38.0672 30.8282 39.3883 29.3753 40.0415 28.0619L37.7937 26.98C37.4596 27.7989 36.594 28.4791 35.6218 28.4791C33.9662 28.4791 32.797 27.1807 32.797 25.4962C32.797 23.7961 33.9665 22.5134 35.6218 22.5134C36.5937 22.5134 37.4596 23.1936 37.7937 24.0125L40.0415 22.9152C39.3883 21.5707 38.0672 20.1643 35.6218 20.1643C32.5082 20.1643 30.1389 22.3127 30.1389 25.4962C30.1389 28.6644 32.5082 30.8282 35.6218 30.8282ZM74.1917 15.7156C73.1119 15.7156 72.3489 16.1907 71.8018 16.8242V12.8219H69.7719V23.7633H71.7442V22.7844C72.2913 23.4466 73.0687 23.9505 74.1917 23.9505C76.4231 23.9505 78.1076 22.1941 78.1076 19.8475C78.1076 17.5008 76.4231 15.7156 74.1917 15.7156ZM73.8749 22.0933C72.5792 22.0933 71.7154 21.0712 71.7154 19.8331C71.7154 18.6094 72.5792 17.5872 73.8749 17.5872C75.1706 17.5872 76.0344 18.595 76.0344 19.8331C76.0344 21.0712 75.1706 22.0933 73.8749 22.0933ZM61.8297 19.8763C61.8297 22.6836 59.9149 23.9505 57.6834 23.9505C55.4376 23.9505 53.5228 22.6836 53.5228 19.8763V13.1242H55.6679V19.7323C55.6679 21.1863 56.4885 21.8774 57.6834 21.8774C58.864 21.8774 59.6702 21.1576 59.6702 19.7323V13.1242H61.8297V19.8763ZM65.7423 23.7633H63.7124V15.9172H65.6559V16.9681C66.1454 16.1043 66.894 15.7012 67.8154 15.7012C68.1033 15.7012 68.4489 15.7588 68.7656 15.874L68.5928 17.8175C68.2761 17.7168 67.9594 17.6592 67.6571 17.6592C66.5917 17.6592 65.7423 18.3214 65.7423 20.0346V23.7633ZM85.5036 16.853V15.9172H87.4328V23.7633H85.5036V22.8564C84.9277 23.4754 84.1071 23.9505 82.9986 23.9505C80.7239 23.9505 79.1115 22.1365 79.1115 19.8043C79.1115 17.4432 80.7671 15.7156 82.9986 15.7156C84.1071 15.7156 84.9133 16.2051 85.5036 16.853ZM81.1414 19.8331C81.1414 21.0856 82.034 22.1077 83.3297 22.1077C84.6254 22.1077 85.5324 21.0712 85.5324 19.8331C85.5324 18.6094 84.6254 17.5728 83.3297 17.5728C82.0196 17.5728 81.1414 18.6094 81.1414 19.8331ZM89.258 23.7633H91.2879V19.5595C91.2879 18.379 92.0221 17.5728 93.0875 17.5728C94.0665 17.5728 94.7431 18.2494 94.7431 19.5163V23.7633H96.773V18.9693C96.773 16.7522 95.2902 15.7012 93.7065 15.7012C92.5404 15.7012 91.6478 16.2771 91.2447 17.0113V15.9172H89.258V23.7633ZM63.1974 36.0581C62.2616 37.3394 60.5484 38.3184 58.504 38.3184C55.4664 38.3184 53.0333 36.1301 53.0333 32.8764C53.0333 29.594 55.5383 27.3337 58.5328 27.3337C60.5052 27.3337 62.1896 28.2407 63.111 29.5364L61.6857 30.9329C60.9515 30.0259 59.9005 29.3924 58.648 29.3924C56.7477 29.3924 55.2504 30.8465 55.2504 32.8764C55.2504 34.8488 56.7189 36.274 58.6336 36.274C59.8861 36.274 60.9803 35.655 61.7289 34.7192L63.1974 36.0581ZM68.0892 38.3615C70.5942 38.3615 72.293 36.5188 72.293 34.2297C72.293 31.9694 70.5942 30.0979 68.0892 30.0979C65.5842 30.0979 63.8854 31.9694 63.8854 34.2297C63.8854 36.5188 65.5842 38.3615 68.0892 38.3615ZM68.0892 36.4756C66.8655 36.4756 65.9153 35.4822 65.9153 34.2297C65.9153 32.9916 66.8655 31.9982 68.0892 31.9982C69.3129 31.9982 70.2631 32.9916 70.2631 34.2297C70.2631 35.4822 69.3129 36.4756 68.0892 36.4756ZM80.4026 31.4799C80.9784 30.6018 82.0582 30.0979 83.2099 30.0979C84.9951 30.0979 86.406 31.264 86.406 33.4235V38.16H84.3761V33.7978C84.3761 32.5597 83.7138 31.9694 82.8068 31.9694C81.8135 31.9694 81.0792 32.6893 81.0792 33.8554V38.16H79.0493V33.8122C79.0493 32.6317 78.4158 31.9694 77.4657 31.9694C76.5011 31.9694 75.7525 32.6605 75.7525 33.8698V38.16H73.7225V30.3138H75.7093V31.4368C76.1556 30.6018 77.0914 30.0835 78.0991 30.0979C79.0349 30.0979 79.9563 30.5298 80.4026 31.4799ZM92.6535 30.1123C91.5449 30.1123 90.7387 30.6161 90.1628 31.2784V30.3138H88.1473V41.3848H90.1772V37.253C90.7531 37.8721 91.5449 38.3471 92.6391 38.3471C94.8993 38.3471 96.5117 36.5044 96.5117 34.2297C96.5117 31.955 94.8993 30.1123 92.6535 30.1123ZM92.2935 36.49C90.9978 36.49 90.134 35.4822 90.134 34.2441C90.134 33.006 90.9978 31.9982 92.2935 31.9982C93.6036 31.9982 94.4674 33.006 94.4674 34.2441C94.4674 35.4822 93.6036 36.49 92.2935 36.49ZM103.921 31.2496V30.3138H105.85V38.16H103.921V37.253C103.345 37.8721 102.525 38.3471 101.416 38.3471C99.1415 38.3471 97.5291 36.5332 97.5291 34.2009C97.5291 31.8399 99.1847 30.1123 101.416 30.1123C102.525 30.1123 103.331 30.6018 103.921 31.2496ZM99.559 34.2297C99.559 35.4822 100.452 36.5044 101.747 36.5044C103.043 36.5044 103.95 35.4678 103.95 34.2297C103.95 33.006 103.043 31.9694 101.747 31.9694C100.437 31.9694 99.559 33.006 99.559 34.2297ZM107.676 38.16H109.705V33.9562C109.705 32.7756 110.44 31.9694 111.505 31.9694C112.484 31.9694 113.161 32.6461 113.161 33.913V38.16H115.191V33.3659C115.191 31.1488 113.708 30.0979 112.124 30.0979C110.958 30.0979 110.065 30.6737 109.662 31.408V30.3138H107.676V38.16ZM120.174 35.4246L121.959 30.3138H124.176L121.023 38.5487C120.274 40.4778 119.295 41.5 117.697 41.5C117.107 41.5 116.574 41.356 116.186 41.1113L116.531 39.4125C116.834 39.5565 117.179 39.6716 117.539 39.6716C118.187 39.6716 118.662 39.2973 119.065 38.4335L119.223 38.0736L115.797 30.3138H118.144L120.174 35.4246Z" fill="white"/>
</g>
<defs>
<clipPath id="clip0_2612_758">
<rect width="112" height="32" fill="white" transform="translate(13 9.5)"/>
</clipPath>
</defs>
</svg>
